#Comment line ignore any data following # character 
#Hierarchical Translation and Rotation (.htr) file 
[Header]	
#Header keywords are followed by a single value 
FileType HTR		#Single word string
DataType HTRS		#Translation followed by rotation and scale data
FileVersion 1		#integer
NumSegments 84		#integer
NumFrames 2		#integer
DataFrameRate 30		#integer, data frame rate in this file
EulerRotationOrder ZYX
CalibrationUnits mm
RotationUnits Degrees
GlobalAxisofGravity Y
BoneLengthAxis Y
ScaleFactor 1.00
[SegmentNames&Hierarchy]
#CHILD	PARENT
MASTER GLOBAL
root MASTER
chest root
L_mid_tent01 root
R_mid_tent01 root
spine01 root
Bip01_Neck chest
L_humerus chest
R_humerus chest
weapon_bone chest
Bip01_Head Bip01_Neck
eye_left_bone Bip01_Head
eye_right_bone Bip01_Head
L_forearm L_humerus
L_front_hand L_forearm
L_weapon_bone L_forearm
L_front_hand01_01 L_front_hand
L_front_hand02_01 L_front_hand
L_front_hand03_01 L_front_hand
L_front_hand01_02 L_front_hand01_01
L_front_hand02_02 L_front_hand02_01
L_front_hand03_02 L_front_hand03_01
R_forearm R_humerus
R_front_hand R_forearm
R_weapon_bone R_forearm
R_front_hand01_01 R_front_hand
R_front_hand02_01 R_front_hand
R_front_hand03_01 R_front_hand
R_front_hand01_02 R_front_hand01_01
R_front_hand02_02 R_front_hand02_01
R_front_hand03_02 R_front_hand03_01
null_rope01_connect L_mid_tent01
Rope1_Seg01 null_rope01_connect
Rope1_Seg02 Rope1_Seg01
Rope1_Seg03 Rope1_Seg02
Rope1_Seg04 Rope1_Seg03
Rope1_Seg05 Rope1_Seg04
Rope1_Seg06 Rope1_Seg05
Rope1_Seg07 Rope1_Seg06
Rope1_Seg09 Rope1_Seg07
L_mid_hand01 Rope1_Seg09
L_mid_hand02 Rope1_Seg09
L_mid_hand03 Rope1_Seg09
null_rope02_connect R_mid_tent01
Rope2_Seg01 null_rope02_connect
Rope2_Seg02 Rope2_Seg01
Rope2_Seg03 Rope2_Seg02
Rope2_Seg04 Rope2_Seg03
Rope2_Seg05 Rope2_Seg04
Rope2_Seg06 Rope2_Seg05
Rope2_Seg07 Rope2_Seg06
Rope2_Seg09 Rope2_Seg07
R_mid_hand01 Rope2_Seg09
R_mid_hand02 Rope2_Seg09
R_mid_hand03 Rope2_Seg09
spine02 spine01
spine03 spine02
pelvis spine03
null_rope03_connect pelvis
null_rope04_connect pelvis
Rope3_Seg01 null_rope03_connect
Rope3_Seg02 Rope3_Seg01
Rope3_Seg03 Rope3_Seg02
Rope3_Seg04 Rope3_Seg03
Rope3_Seg05 Rope3_Seg04
Rope3_Seg06 Rope3_Seg05
Rope3_Seg07 Rope3_Seg06
Rope3_Seg08 Rope3_Seg07
Rope3_Seg09 Rope3_Seg08
R_rear_hand01 Rope3_Seg09
R_rear_hand02 Rope3_Seg09
R_rear_hand03 Rope3_Seg09
Rope4_Seg01 null_rope04_connect
Rope4_Seg02 Rope4_Seg01
Rope4_Seg03 Rope4_Seg02
Rope4_Seg04 Rope4_Seg03
Rope4_Seg05 Rope4_Seg04
Rope4_Seg06 Rope4_Seg05
Rope4_Seg07 Rope4_Seg06
Rope4_Seg08 Rope4_Seg07
Rope4_Seg09 Rope4_Seg08
L_rear_hand01 Rope4_Seg09
L_rear_hand02 Rope4_Seg09
L_rear_hand03 Rope4_Seg09
[BasePosition]
#SegmentName Tx, Ty, Tz, Rx, Ry, Rz, BoneLength
MASTER 0.000000 0.000000 0.000000 -90.000000 0.000000 0.000000 10.000000 
root 0.000000 0.000000 0.000000 0.000000 0.000000 0.000000 10.000000 
chest 0.000000 0.000000 0.000000 0.000000 0.000000 0.000000 10.000000 
L_mid_tent01 0.000000 0.000000 0.000000 0.000000 0.000000 0.000000 10.000000 
R_mid_tent01 0.000000 0.000000 0.000000 0.000000 0.000000 0.000000 10.000000 
spine01 0.000000 0.000000 0.000000 0.000000 0.000000 0.000000 10.000000 
Bip01_Neck 0.000000 0.000000 0.000000 0.000000 0.000000 0.000000 10.000000 
L_humerus 0.000000 0.000000 0.000000 0.000000 0.000000 0.000000 10.000000 
R_humerus 0.000000 0.000000 0.000000 0.000000 0.000000 0.000000 10.000000 
weapon_bone 0.000000 0.000000 0.000000 0.000000 0.000000 0.000000 10.000000 
Bip01_Head 0.000000 0.000000 0.000000 0.000000 0.000000 0.000000 10.000000 
eye_left_bone 0.000000 0.000000 0.000000 0.000000 0.000000 0.000000 10.000000 
eye_right_bone 0.000000 0.000000 0.000000 0.000000 0.000000 0.000000 10.000000 
L_forearm 0.000000 0.000000 0.000000 0.000000 0.000000 0.000000 10.000000 
L_front_hand 0.000000 0.000000 0.000000 0.000000 0.000000 0.000000 10.000000 
L_weapon_bone 0.000000 0.000000 0.000000 0.000000 0.000000 0.000000 10.000000 
L_front_hand01_01 0.000000 0.000000 0.000000 0.000000 0.000000 0.000000 10.000000 
L_front_hand02_01 0.000000 0.000000 0.000000 0.000000 0.000000 0.000000 10.000000 
L_front_hand03_01 0.000000 0.000000 0.000000 0.000000 0.000000 0.000000 10.000000 
L_front_hand01_02 0.000000 0.000000 0.000000 0.000000 0.000000 0.000000 10.000000 
L_front_hand02_02 0.000000 0.000000 0.000000 0.000000 0.000000 0.000000 10.000000 
L_front_hand03_02 0.000000 0.000000 0.000000 0.000000 0.000000 0.000000 10.000000 
R_forearm 0.000000 0.000000 0.000000 0.000000 0.000000 0.000000 10.000000 
R_front_hand 0.000000 0.000000 0.000000 0.000000 0.000000 0.000000 10.000000 
R_weapon_bone 0.000000 0.000000 0.000000 0.000000 0.000000 0.000000 10.000000 
R_front_hand01_01 0.000000 0.000000 0.000000 0.000000 0.000000 0.000000 10.000000 
R_front_hand02_01 0.000000 0.000000 0.000000 0.000000 0.000000 0.000000 10.000000 
R_front_hand03_01 0.000000 0.000000 0.000000 0.000000 0.000000 0.000000 10.000000 
R_front_hand01_02 0.000000 0.000000 0.000000 0.000000 0.000000 0.000000 10.000000 
R_front_hand02_02 0.000000 0.000000 0.000000 0.000000 0.000000 0.000000 10.000000 
R_front_hand03_02 0.000000 0.000000 0.000000 0.000000 0.000000 0.000000 10.000000 
null_rope01_connect 0.000000 0.000000 0.000000 0.000000 0.000000 0.000000 10.000000 
Rope1_Seg01 0.000000 0.000000 0.000000 0.000000 0.000000 0.000000 10.000000 
Rope1_Seg02 0.000000 0.000000 0.000000 0.000000 0.000000 0.000000 10.000000 
Rope1_Seg03 0.000000 0.000000 0.000000 0.000000 0.000000 0.000000 10.000000 
Rope1_Seg04 0.000000 0.000000 0.000000 0.000000 0.000000 0.000000 10.000000 
Rope1_Seg05 0.000000 0.000000 0.000000 0.000000 0.000000 0.000000 10.000000 
Rope1_Seg06 0.000000 0.000000 0.000000 0.000000 0.000000 0.000000 10.000000 
Rope1_Seg07 0.000000 0.000000 0.000000 0.000000 0.000000 0.000000 10.000000 
Rope1_Seg09 0.000000 0.000000 0.000000 0.000000 0.000000 0.000000 10.000000 
L_mid_hand01 0.000000 0.000000 0.000000 0.000000 0.000000 0.000000 10.000000 
L_mid_hand02 0.000000 0.000000 0.000000 0.000000 0.000000 0.000000 10.000000 
L_mid_hand03 0.000000 0.000000 0.000000 0.000000 0.000000 0.000000 10.000000 
null_rope02_connect 0.000000 0.000000 0.000000 0.000000 0.000000 0.000000 10.000000 
Rope2_Seg01 0.000000 0.000000 0.000000 0.000000 0.000000 0.000000 10.000000 
Rope2_Seg02 0.000000 0.000000 0.000000 0.000000 0.000000 0.000000 10.000000 
Rope2_Seg03 0.000000 0.000000 0.000000 0.000000 0.000000 0.000000 10.000000 
Rope2_Seg04 0.000000 0.000000 0.000000 0.000000 0.000000 0.000000 10.000000 
Rope2_Seg05 0.000000 0.000000 0.000000 0.000000 0.000000 0.000000 10.000000 
Rope2_Seg06 0.000000 0.000000 0.000000 0.000000 0.000000 0.000000 10.000000 
Rope2_Seg07 0.000000 0.000000 0.000000 0.000000 0.000000 0.000000 10.000000 
Rope2_Seg09 0.000000 0.000000 0.000000 0.000000 0.000000 0.000000 10.000000 
R_mid_hand01 0.000000 0.000000 0.000000 0.000000 0.000000 0.000000 10.000000 
R_mid_hand02 0.000000 0.000000 0.000000 0.000000 0.000000 0.000000 10.000000 
R_mid_hand03 0.000000 0.000000 0.000000 0.000000 0.000000 0.000000 10.000000 
spine02 0.000000 0.000000 0.000000 0.000000 0.000000 0.000000 10.000000 
spine03 0.000000 0.000000 0.000000 0.000000 0.000000 0.000000 10.000000 
pelvis 0.000000 0.000000 0.000000 0.000000 0.000000 0.000000 10.000000 
null_rope03_connect 0.000000 0.000000 0.000000 0.000000 0.000000 0.000000 10.000000 
null_rope04_connect 0.000000 0.000000 0.000000 0.000000 0.000000 0.000000 10.000000 
Rope3_Seg01 0.000000 0.000000 0.000000 0.000000 0.000000 0.000000 10.000000 
Rope3_Seg02 0.000000 0.000000 0.000000 0.000000 0.000000 0.000000 10.000000 
Rope3_Seg03 0.000000 0.000000 0.000000 0.000000 0.000000 0.000000 10.000000 
Rope3_Seg04 0.000000 0.000000 0.000000 0.000000 0.000000 0.000000 10.000000 
Rope3_Seg05 0.000000 0.000000 0.000000 0.000000 0.000000 0.000000 10.000000 
Rope3_Seg06 0.000000 0.000000 0.000000 0.000000 0.000000 0.000000 10.000000 
Rope3_Seg07 0.000000 0.000000 0.000000 0.000000 0.000000 0.000000 10.000000 
Rope3_Seg08 0.000000 0.000000 0.000000 0.000000 0.000000 0.000000 10.000000 
Rope3_Seg09 0.000000 0.000000 0.000000 0.000000 0.000000 0.000000 10.000000 
R_rear_hand01 0.000000 0.000000 0.000000 0.000000 0.000000 0.000000 10.000000 
R_rear_hand02 0.000000 0.000000 0.000000 0.000000 0.000000 0.000000 10.000000 
R_rear_hand03 0.000000 0.000000 0.000000 0.000000 0.000000 0.000000 10.000000 
Rope4_Seg01 0.000000 0.000000 0.000000 0.000000 0.000000 0.000000 10.000000 
Rope4_Seg02 0.000000 0.000000 0.000000 0.000000 0.000000 0.000000 10.000000 
Rope4_Seg03 0.000000 0.000000 0.000000 0.000000 0.000000 0.000000 10.000000 
Rope4_Seg04 0.000000 0.000000 0.000000 0.000000 0.000000 0.000000 10.000000 
Rope4_Seg05 0.000000 0.000000 0.000000 0.000000 0.000000 0.000000 10.000000 
Rope4_Seg06 0.000000 0.000000 0.000000 0.000000 0.000000 0.000000 10.000000 
Rope4_Seg07 0.000000 0.000000 0.000000 0.000000 0.000000 0.000000 10.000000 
Rope4_Seg08 0.000000 0.000000 0.000000 0.000000 0.000000 0.000000 10.000000 
Rope4_Seg09 0.000000 0.000000 0.000000 0.000000 0.000000 0.000000 10.000000 
L_rear_hand01 0.000000 0.000000 0.000000 0.000000 0.000000 0.000000 10.000000 
L_rear_hand02 0.000000 0.000000 0.000000 0.000000 0.000000 0.000000 10.000000 
L_rear_hand03 0.000000 0.000000 0.000000 0.000000 0.000000 0.000000 10.000000 
#Beginning of Data. Separated by tabs
#Fr	Tx	Ty	Tz	Rx	Ry	Rz	SF
[MASTER]
11 0.000000 0.000000 0.000000 0.001660 0.001660 0.001660 0.000000
12 0.000000 0.000000 0.000000 0.001660 0.001660 0.001660 0.000000
[root]
11 -37.805321 -51.439888 3382.660889 -89.232819 3.077195 -98.788437 3383.263184
12 -37.584709 -51.557755 3650.889648 -92.424904 4.972576 -97.180099 3651.447021
[chest]
11 -84.512650 -34.090519 0.000000 15.967495 -12.295798 149.597504 91.129311
12 -84.512650 -34.090519 0.000000 9.695585 -19.478296 153.904922 91.129311
[L_mid_tent01]
11 27.299534 22.177692 -249.918228 2.278387 1.720737 78.963531 252.381134
12 27.299538 22.177696 -249.918213 2.507267 9.013511 79.387260 252.381119
[R_mid_tent01]
11 23.228794 24.509907 226.238495 166.033981 -4.329734 73.370255 228.744751
12 23.228794 24.509907 226.238495 165.984619 -13.025854 75.572861 228.744751
[spine01]
11 -0.361383 -0.195265 0.000000 0.002062 0.001122 32.879829 0.410763
12 -0.361383 -0.195265 0.000000 0.002062 0.001122 32.879822 0.410763
[Bip01_Neck]
11 165.484543 71.581718 0.000119 176.643677 -1.657967 43.431911 180.302734
12 165.484543 71.581718 0.000119 176.643677 -1.657967 43.431911 180.302734
[L_humerus]
11 -13.983130 -135.272980 -120.471481 164.685104 21.045618 -67.093765 181.680161
12 -13.983130 -135.272980 -120.471481 162.769058 21.894865 -66.003845 181.680161
[R_humerus]
11 -13.983309 -135.273102 125.287651 -177.263535 -15.047795 -85.512886 184.909012
12 -13.983309 -135.273102 125.287651 -176.955414 -11.787664 -86.163353 184.909012
[weapon_bone]
11 235.964890 -300.705902 0.000000 0.000000 -89.951546 -128.212341 382.234833
12 235.964890 -300.705902 0.000000 0.000000 -89.951546 -128.212341 382.234833
[Bip01_Head]
11 213.528275 185.481766 14.793859 31.897736 0.306530 -43.902184 283.225464
12 213.472595 185.636703 12.792800 32.006981 0.144734 -43.899757 283.187561
[eye_left_bone]
11 -24.626970 125.451866 -64.772606 0.000000 -90.000000 -99.840431 143.318359
12 -24.626970 125.451866 -64.772606 0.000000 -90.000000 -99.840431 143.318359
[eye_right_bone]
11 -24.626970 125.451866 64.327362 0.000000 -89.965736 80.156380 143.117676
12 -24.626970 125.451866 64.327362 0.000000 -89.965736 80.156380 143.117676
[L_forearm]
11 322.776093 0.000000 -0.000119 0.000119 -0.002344 -95.807457 322.776093
12 322.776093 0.000000 -0.000119 0.000119 -0.002344 -95.807457 322.776093
[L_front_hand]
11 241.149185 -0.042021 -3.300071 -178.667953 -1.835447 -27.422350 241.171753
12 241.149185 -0.042021 -3.300071 -178.667953 -1.835447 -27.422350 241.171753
[L_weapon_bone]
11 156.183838 0.000000 0.000000 0.000014 0.000007 0.000001 156.183838
12 156.183838 0.000000 0.000000 0.000014 0.000007 0.000001 156.183838
[L_front_hand01_01]
11 86.095154 20.947098 -0.655860 -0.282467 -0.528169 66.067474 88.609184
12 86.095154 20.947098 -0.655860 -0.274633 -0.532782 65.272827 88.609184
[L_front_hand02_01]
11 86.935165 -11.437475 24.513514 141.960785 -54.937931 -46.642326 91.046425
12 86.935165 -11.437475 24.513514 141.090271 -54.445614 -45.572052 91.046425
[L_front_hand03_01]
11 86.637497 -14.123976 -20.424902 -142.303543 53.163303 -48.671021 90.126129
12 86.637497 -14.123976 -20.424902 -141.476303 52.677540 -47.637543 90.126129
[L_front_hand01_02]
11 71.020905 -0.000179 0.000030 0.000315 -0.002326 -105.442795 71.020905
12 71.020905 -0.000179 0.000030 0.000315 -0.002326 -105.419182 71.020905
[L_front_hand02_02]
11 71.020927 -0.000119 0.000060 0.000315 -0.002326 -105.442795 71.020927
12 71.020927 -0.000119 0.000060 0.000315 -0.002326 -105.419182 71.020927
[L_front_hand03_02]
11 71.020905 -0.000060 0.000060 0.000315 -0.002326 -105.442795 71.020905
12 71.020905 -0.000060 0.000060 0.000315 -0.002326 -105.419182 71.020905
[R_forearm]
11 322.776428 -0.000060 0.000030 0.209504 0.012586 -94.339050 322.776428
12 322.776428 -0.000060 0.000030 0.209504 0.012586 -94.339050 322.776428
[R_front_hand]
11 238.847015 -0.006795 2.210259 -2.635298 -10.645461 -26.312506 238.857239
12 238.847015 -0.006795 2.210259 -2.635298 -10.645461 -26.312506 238.857239
[R_weapon_bone]
11 155.664093 0.002503 -0.000030 0.003487 0.001180 -90.988930 155.664078
12 155.664093 0.002503 -0.000030 0.003487 0.001180 -90.988930 155.664078
[R_front_hand01_01]
11 87.624611 14.231146 22.918642 -141.947052 -54.924736 46.726727 91.683487
12 87.624611 14.231146 22.918642 -140.500656 -54.097115 44.955364 91.683487
[R_front_hand02_01]
11 89.356956 14.367283 -19.491137 142.634140 53.329124 49.315853 92.579636
12 89.356956 14.367283 -19.491137 141.255966 52.517570 47.591045 92.579636
[R_front_hand03_01]
11 87.286232 -22.307278 -0.143439 0.092230 -0.445770 -66.286446 90.091743
12 87.286232 -22.307278 -0.143439 0.080269 -0.445286 -64.968231 90.091743
[R_front_hand01_02]
11 71.020905 0.000060 0.000119 0.002323 -0.000334 106.381714 71.020905
12 71.020905 0.000060 0.000119 0.002323 -0.000334 106.381714 71.020905
[R_front_hand02_02]
11 71.020844 -0.000030 -0.000119 0.002323 -0.000334 106.381714 71.020836
12 71.020844 -0.000030 -0.000119 0.002323 -0.000334 106.381714 71.020836
[R_front_hand03_02]
11 71.020905 0.000000 0.000030 0.002323 -0.000334 106.381714 71.020905
12 71.020905 0.000000 0.000030 0.002323 -0.000334 106.381714 71.020905
[null_rope01_connect]
11 328.732483 0.000000 -0.000238 -93.167206 -78.661148 101.092438 328.732483
12 328.732483 0.000000 -0.000238 -137.420929 -74.803894 142.645493 328.732483
[Rope1_Seg01]
11 0.000017 -0.000076 -0.000055 -36.795559 63.817417 -37.431061 0.000096
12 0.000019 -0.000076 -0.000076 -48.069824 69.475296 -46.562874 0.000110
[Rope1_Seg02]
11 139.999863 -0.000179 0.000000 -1.296413 5.393975 -2.847356 139.999863
12 139.999863 -0.000179 0.000000 -4.757416 9.416348 1.164280 139.999863
[Rope1_Seg03]
11 139.999924 0.000060 -0.000060 -2.883416 8.287766 -4.067021 139.999924
12 139.999924 0.000060 -0.000060 -13.115979 18.833710 4.602050 139.999924
[Rope1_Seg04]
11 139.999924 -0.000060 -0.000119 -15.586526 20.231918 -7.364318 139.999924
12 139.999924 -0.000060 -0.000119 -9.897860 10.677731 4.650565 139.999924
[Rope1_Seg05]
11 139.999832 0.000119 -0.000060 7.754829 -2.943560 -4.046569 139.999832
12 139.999832 0.000119 -0.000060 24.553972 -17.445606 -17.375698 139.999832
[Rope1_Seg06]
11 139.999954 0.000119 -0.000060 10.404396 -9.728657 -1.045697 139.999954
12 139.999954 0.000119 -0.000060 8.098130 -9.983264 -4.295690 139.999954
[Rope1_Seg07]
11 139.999985 0.000060 0.000000 2.761604 -2.784792 -0.372296 139.999985
12 139.999985 0.000060 0.000000 3.659106 -5.774029 -1.609863 139.999985
[Rope1_Seg09]
11 121.602913 0.000119 -0.000089 -89.793175 -1.359789 0.847147 121.602913
12 121.602913 0.000119 -0.000089 -89.793175 -1.359789 0.847147 121.602913
[L_mid_hand01]
11 103.859421 1.038730 8.195221 110.016701 -43.583408 -14.630757 104.187431
12 103.859421 1.038730 8.195221 111.216125 -46.770245 -16.325298 104.187431
[L_mid_hand02]
11 105.572853 -4.139662 -10.864139 -148.402466 33.171719 -41.059582 106.211075
12 105.572853 -4.139662 -10.864139 -150.384232 34.904911 -44.592556 106.211075
[L_mid_hand03]
11 104.641464 17.579376 -3.913581 -13.575852 13.082145 47.042416 106.179977
12 104.641464 17.579376 -3.913581 -12.781249 13.855401 50.452690 106.179977
[null_rope02_connect]
11 328.732849 0.000179 -0.000119 -105.378128 84.022690 60.313297 328.732849
12 328.732849 0.000179 -0.000119 -130.850250 78.004951 37.955700 328.732849
[Rope2_Seg01]
11 -0.000087 0.000130 0.000083 86.003204 66.039215 -155.492096 0.000177
12 -0.000095 0.000128 0.000076 83.313316 60.326931 -157.944901 0.000177
[Rope2_Seg02]
11 139.999741 -0.000060 -0.000119 -0.102789 2.419850 -0.495202 139.999756
12 139.999741 -0.000060 -0.000119 0.308495 0.298841 -3.781704 139.999756
[Rope2_Seg03]
11 140.000107 0.000030 0.000000 -0.169856 3.191115 -0.651230 140.000107
12 140.000107 0.000030 0.000000 0.688984 0.313807 -5.790452 140.000107
[Rope2_Seg04]
11 139.999802 0.000000 -0.000060 0.185299 2.334635 -1.914040 139.999802
12 139.999802 0.000000 -0.000060 3.805539 -3.518558 -17.154066 139.999802
[Rope2_Seg05]
11 139.999985 -0.000060 0.000119 -1.838278 10.401352 0.191963 139.999985
12 139.999985 -0.000060 0.000119 -2.531096 12.573696 5.129619 139.999985
[Rope2_Seg06]
11 139.999893 -0.000030 -0.000119 -3.088087 8.368019 2.246348 139.999893
12 139.999893 -0.000030 -0.000119 -4.679931 8.838834 9.431852 139.999893
[Rope2_Seg07]
11 139.999893 0.000060 -0.000060 -1.589079 3.575741 0.877455 139.999893
12 139.999893 0.000060 -0.000060 -1.985688 3.285544 3.018072 139.999893
[Rope2_Seg09]
11 121.338966 0.000089 -0.000060 33.793236 -1.359788 -0.847141 121.338966
12 121.338966 0.000089 -0.000060 33.793236 -1.359788 -0.847141 121.338966
[R_mid_hand01]
11 104.680779 11.144459 -10.335981 -36.116539 33.174709 39.598408 105.778534
12 104.680779 11.144459 -10.335981 -36.922554 32.243565 38.107742 105.778534
[R_mid_hand02]
11 104.070427 2.443552 8.231699 69.680672 -44.419228 15.065828 104.424065
12 104.070427 2.443552 8.231699 70.193451 -42.958271 14.324638 104.424065
[R_mid_hand03]
11 106.028137 -11.221827 -5.996406 -170.354065 12.593575 -49.350609 106.788818
12 106.028137 -11.221827 -5.996406 -170.013962 12.325404 -47.779564 106.788818
[spine02]
11 129.756927 0.001550 0.000119 -1.023899 -3.926965 6.770993 129.756927
12 129.756927 0.001550 0.000119 -1.023899 -3.926965 6.770993 129.756927
[spine03]
11 78.613892 0.087419 -4.898860 1.040681 4.146420 4.212376 78.766426
12 78.613892 0.087433 -4.898858 1.040681 4.146420 4.212376 78.766426
[pelvis]
11 169.435242 0.051022 0.000000 0.019518 -0.190233 -10.721436 169.435257
12 169.435242 0.051022 0.000000 0.019518 -0.190233 -10.721436 169.435257
[null_rope03_connect]
11 -1.257226 -2.466202 137.391083 -86.757301 -81.286995 140.659927 137.418976
12 -1.257226 -2.466202 137.391083 -111.523483 -82.655647 163.315277 137.418976
[null_rope04_connect]
11 -1.259640 -2.480268 -137.844437 -86.757301 -81.286995 140.659927 137.872513
12 -1.259640 -2.480268 -137.844437 -111.523483 -82.655647 163.315277 137.872513
[Rope3_Seg01]
11 0.000035 -0.000049 0.000139 -172.464600 48.350986 -122.985985 0.000151
12 0.000038 -0.000048 0.000153 -177.054367 49.852375 -126.271797 0.000164
[Rope3_Seg02]
11 139.999924 -0.000119 0.000060 -4.986557 -8.135978 -0.507023 139.999924
12 139.999924 -0.000119 0.000060 -2.772840 -6.309240 -2.793829 139.999924
[Rope3_Seg03]
11 139.999924 -0.000119 0.000119 -3.253739 -6.671105 -0.849443 139.999924
12 139.999924 -0.000119 0.000119 -1.782237 -5.235104 -2.576026 139.999924
[Rope3_Seg04]
11 139.999924 0.000119 0.000000 -3.454003 -7.543767 -0.142463 139.999924
12 139.999924 0.000119 0.000000 -1.519349 -4.830906 -2.087857 139.999924
[Rope3_Seg05]
11 139.999924 -0.000238 0.000060 -0.450669 -2.512066 -1.482472 139.999924
12 139.999924 -0.000238 0.000060 -0.426512 -3.004389 -2.164155 139.999924
[Rope3_Seg06]
11 139.999893 -0.000119 -0.000060 1.818677 2.242632 -2.471199 139.999893
12 139.999893 -0.000119 -0.000060 0.477169 -1.334807 -2.175344 139.999893
[Rope3_Seg07]
11 139.999771 0.000060 -0.000119 2.215956 3.189171 -2.594234 139.999771
12 139.999771 0.000060 -0.000119 0.582390 -1.042551 -1.848555 139.999771
[Rope3_Seg08]
11 139.999985 -0.000060 0.000000 1.177583 0.882207 -1.453354 139.999985
12 139.999985 -0.000060 0.000000 0.502080 -1.001960 -1.229342 139.999985
[Rope3_Seg09]
11 90.185997 -0.000179 -0.000060 89.793228 -1.359877 -0.847183 90.185997
12 90.185997 -0.000179 -0.000060 89.793228 -1.359877 -0.847183 90.185997
[R_rear_hand01]
11 103.366196 -6.073594 -10.757982 -165.009155 19.819433 -41.100952 104.101845
12 103.366196 -6.073594 -10.757982 -164.755127 19.627697 -40.352161 104.101845
[R_rear_hand02]
11 100.509819 12.039542 -7.992327 -30.502352 25.155794 38.836960 101.543350
12 100.509819 12.039542 -7.992327 -30.792652 24.782450 38.141541 101.543350
[R_rear_hand03]
11 101.539970 5.215704 5.435467 82.364594 -41.773369 8.967985 101.819031
12 101.539970 5.215704 5.435467 82.448349 -41.048256 8.840383 101.819031
[Rope4_Seg01]
11 0.000017 -0.000042 -0.000222 42.503220 51.812298 -118.632980 0.000226
12 0.000019 -0.000038 -0.000229 39.804939 50.641682 -122.086823 0.000233
[Rope4_Seg02]
11 139.999985 0.000060 0.000119 0.343932 7.292562 1.559904 139.999985
12 139.999985 0.000060 0.000119 0.293875 7.990333 0.066802 139.999985
[Rope4_Seg03]
11 139.999924 0.000000 -0.000238 0.267733 4.663772 1.428236 139.999924
12 139.999924 0.000000 -0.000238 0.385439 5.085882 0.503934 139.999924
[Rope4_Seg04]
11 139.999985 0.000000 0.000119 0.066592 3.483344 1.809770 139.999985
12 139.999985 0.000000 0.000119 0.234956 3.640198 1.112591 139.999985
[Rope4_Seg05]
11 139.999802 -0.000060 -0.000119 0.559720 1.598052 -0.772048 139.999802
12 139.999802 -0.000060 -0.000119 0.644300 1.947285 -1.189406 139.999802
[Rope4_Seg06]
11 139.999924 0.000000 0.000060 1.073976 0.458181 -2.783834 139.999924
12 139.999924 0.000000 0.000060 1.116334 1.031723 -3.139369 139.999924
[Rope4_Seg07]
11 139.999802 0.000000 0.000000 1.094763 0.198729 -3.018747 139.999802
12 139.999802 0.000000 0.000000 1.140279 0.831442 -3.329130 139.999802
[Rope4_Seg08]
11 139.999924 0.000000 0.000119 -0.938972 0.434287 -1.530221 139.999924
12 139.999924 0.000000 0.000119 -0.862193 0.808866 -1.849344 139.999924
[Rope4_Seg09]
11 90.185791 0.000060 0.000060 -135.617828 2.228885 0.850567 90.185791
12 90.185791 0.000060 0.000060 -135.617828 2.228885 0.850567 90.185791
[L_rear_hand01]
11 101.696655 -8.392275 -7.654577 -28.015858 -27.942150 135.607513 102.329041
12 101.696655 -8.392275 -7.654577 -26.077669 -29.734318 131.595917 102.329041
[L_rear_hand02]
11 102.726799 -1.568258 5.773216 81.577332 47.415279 169.913010 102.900848
12 102.726799 -1.568258 5.773216 80.880585 51.310986 168.994995 102.900848
[L_rear_hand03]
11 104.552910 9.721220 -10.420293 -167.078079 -21.194334 -132.993317 105.519653
12 104.552910 9.721220 -10.420293 -168.606277 -22.023737 -128.845825 105.519653
